<?xml version="1.0" encoding="utf-8"?>
<svg xmlns="http://www.w3.org/2000/svg" height="309" version="1.2" viewBox="0 0 987 309" width="987">
	<title>Broad Primary Brandmark_RGB-ai</title>
	<style>
		.s0 { fill: #231f20 } 
		.s1 { fill: #64656a } 
		.s2 { fill: #f05a00 } 
	</style>
	<g id="Layer 1">
		<path class="s0" d="m566.3 185.2h-38.9l-27.1-51.8h-10.9v51.8h-32.5v-133.4h52.1c5.6 0 10.9 0.4 15.6 1.1 4.8 0.8 9.4 2.2 13.8 4.2 4.4 2 8.2 4.6 11.3 7.6 3.1 3.2 5.6 7.2 7.4 12 1.7 4.7 2.6 10.2 2.6 16.3 0 9.7-2.5 18-7.6 24.8-4.7 6-11.1 10.1-19.1 12.1zm-76.9-79.8h14.8q2.8 0 4.6-0.1 1.8 0 4.4-0.3 2.6-0.3 4.3-0.8 1.7-0.5 3.6-1.5 1.7-0.8 2.6-2 1-1.3 1.8-3.3 0.7-1.9 0.7-4.5c0-2.7-0.6-5-1.6-6.7-1.1-1.8-2.6-3-4.5-3.8-2.1-0.9-4.3-1.6-6.4-1.9-2.2-0.4-4.8-0.6-7.6-0.6h-16.7z" fill-rule="evenodd" id="&lt;Compound Path&gt;"/>
		<path class="s0" d="m712 118.5c0 13.8-3.1 26.2-9.3 36.9-6.2 10.7-14.8 18.9-25.6 24.6-10.8 5.6-23.2 8.5-36.9 8.5-13.7 0-26.1-2.9-36.9-8.5-10.8-5.7-19.4-13.9-25.6-24.6-6.2-10.7-9.3-23.1-9.3-36.9 0-13.9 3.1-26.3 9.3-37 6.2-10.6 14.8-18.9 25.6-24.6 10.8-5.6 23.2-8.4 36.9-8.4 13.7 0 26.1 2.8 36.9 8.4 10.8 5.7 19.4 14 25.6 24.6 6.2 10.7 9.3 23.1 9.3 37zm-44.1 28.6c7-7.4 10.6-17 10.6-28.6 0-11.6-3.6-21.3-10.6-28.6-7-7.4-16.3-11.1-27.7-11.1-11.4 0-20.7 3.7-27.7 11.1-7 7.3-10.5 17-10.5 28.6 0 11.6 3.5 21.2 10.5 28.6 7 7.3 16.3 11 27.7 11 11.4 0 20.7-3.7 27.7-11z" fill-rule="evenodd" id="&lt;Compound Path&gt;"/>
		<path class="s0" d="m854.8 185.2h-36.6l-11.1-27.5h-47.6l-10.8 27.5h-35.8l57.7-133.4h26.2zm-71.9-88.3l-12.9 32.7h25.8z" fill-rule="evenodd" id="&lt;Compound Path&gt;"/>
		<path class="s0" d="m986.1 118.8c0 8.4-1.4 16.2-4 23.4-2.6 7.2-6.4 13.5-11.1 18.7-4.6 5.2-10.2 9.7-16.4 13.4-6.3 3.6-13.1 6.4-20.5 8.2-7.2 1.8-14.9 2.7-22.8 2.7h-48.7v-133.4h44.9c8.6 0 16.8 0.7 24.4 2.2 7.6 1.5 14.8 3.9 21.4 7.3 6.7 3.4 12.5 7.7 17.3 12.8 4.8 5.1 8.6 11.5 11.4 19.1 2.7 7.6 4.1 16.2 4.1 25.6zm-37-17c-2.2-4.5-5.2-8.2-9.1-11-3.9-2.8-8.4-5-13.4-6.5-5.1-1.5-10.7-2.2-16.6-2.2h-14.8v72.7h12.8c5.4 0 10.3-0.4 14.7-1.2 4.3-0.8 8.4-2.1 12.2-4 3.7-1.8 6.8-4.1 9.3-6.9 2.5-2.8 4.6-6.3 6-10.6 1.5-4.2 2.2-9.2 2.2-14.7 0-5.9-1.1-11.1-3.3-15.6z" fill-rule="evenodd" id="&lt;Compound Path&gt;"/>
		<path class="s1" d="m377.6 214.8c-2.5-3-6.2-4.8-10.9-4.8-9.6 0-16.7 7.8-16.7 18.6 0 10.7 7.1 18.5 16.3 18.5 5.1 0 9.2-2.3 11.8-6.2l10.6 7.9c-4.8 6.8-12.9 10-20.8 10-17.9 0-31-11.8-31-30.2 0-18.5 13.1-30.3 31-30.3 6.4 0 14.6 2.2 19.4 8.5z" id="&lt;Compound Path&gt;"/>
		<path class="s1" d="m423.6 198.3c17.9 0 31 11.8 31 30.3 0 18.4-13.1 30.2-31 30.2-18 0-31.1-11.8-31.1-30.2 0-18.5 13.1-30.3 31.1-30.3zm0 48.8c10.8 0 17.8-7.8 17.8-18.5 0-10.8-7-18.6-17.8-18.6-10.9 0-17.9 7.8-17.9 18.6 0 10.7 7 18.5 17.9 18.5z" fill-rule="evenodd" id="&lt;Compound Path&gt;"/>
		<path class="s1" d="m463.2 199.8h17.2l24.5 40h0.1v-40h12.7v57.5h-16.6l-25.1-40.9h-0.1v40.9h-12.7z" id="&lt;Compound Path&gt;"/>
		<path class="s1" d="m557.8 213.9c-2-2.6-6.1-3.9-9.2-3.9-3.5 0-8.5 1.7-8.5 6 0 10.5 26.5 3.7 26.5 23.9 0 12.8-10.3 18.9-22.2 18.9-7.4 0-13.9-2.2-19.3-7.2l9-10c2.6 3.5 6.8 5.5 11.1 5.5 4.1 0 8.7-2 8.7-6 0-10.6-26.9-4.9-26.9-24.1 0-12.2 10.6-18.7 21.9-18.7 6.5 0 12.7 1.8 17.6 6.1z" id="&lt;Compound Path&gt;"/>
		<path class="s1" d="m587.1 211h-16.4v-11.2h45.5v11.2h-16.4v46.3h-12.7z" id="&lt;Compound Path&gt;"/>
		<path class="s1" d="m622.6 199.8h22.3c11.8 0 21.7 4.1 21.7 17.5 0 8-4.3 14.3-12.4 15.7l14.6 24.3h-15.2l-12-23h-6.3v23h-12.7zm12.7 23.8h7.5c4.6 0 10.6-0.1 10.6-6.4 0-5.8-5.2-6.6-9.8-6.6h-8.3z" fill-rule="evenodd" id="&lt;Compound Path&gt;"/>
		<path class="s1" d="m723.8 235.2c0 13.5-8.3 23.6-24.2 23.6-16 0-24.3-10.1-24.3-23.6v-35.4h12.7v34.9c0 7 4.8 12.4 11.6 12.4 6.6 0 11.5-5.4 11.5-12.4v-34.9h12.7z" id="&lt;Compound Path&gt;"/>
		<path class="s1" d="m773.1 214.8c-2.5-3-6.2-4.8-10.9-4.8-9.6 0-16.7 7.8-16.7 18.6 0 10.7 7.1 18.5 16.3 18.5 5.1 0 9.3-2.3 11.9-6.2l10.5 7.9c-4.8 6.8-12.9 10-20.8 10-17.9 0-31-11.8-31-30.2 0-18.5 13.1-30.3 31-30.3 6.4 0 14.6 2.2 19.4 8.5z" id="&lt;Compound Path&gt;"/>
		<path class="s1" d="m802.2 211h-16.4v-11.2h45.5v11.2h-16.4v46.3h-12.7z" id="&lt;Compound Path&gt;"/>
		<path class="s1" d="m837.6 199.8h12.6v57.5h-12.6z" id="&lt;Compound Path&gt;"/>
		<path class="s1" d="m889.7 198.3c18 0 31.1 11.8 31.1 30.3 0 18.4-13.1 30.2-31.1 30.2-17.9 0-31-11.8-31-30.2 0-18.5 13.1-30.3 31-30.3zm0 48.8c10.8 0 17.9-7.8 17.9-18.5 0-10.8-7.1-18.6-17.9-18.6-10.8 0-17.8 7.8-17.8 18.6 0 10.7 7 18.5 17.8 18.5z" fill-rule="evenodd" id="&lt;Compound Path&gt;"/>
		<path class="s1" d="m929.4 199.8h17.2l24.4 40h0.2v-40h12.7v57.5h-16.6l-25.1-40.9h-0.2v40.9h-12.6z" id="&lt;Compound Path&gt;"/>
		<path class="s1" d="m310.4 155c0 85-69 154-154.1 154-85.1 0-154-69-154-154 0-85.1 68.9-154.1 154-154.1 85.1 0 154.1 69 154.1 154.1zm-72.7-50c0 0 0-31.4-31.4-31.4h-99.9c0 0-31.5 0-31.5 31.4v99.9c0 0 0 31.4 31.5 31.4h99.9c0 0 31.4 0 31.4-31.4z" fill-rule="evenodd" id="&lt;Compound Path&gt;"/>
		<path class="s2" d="m97.7 213.7h117.2v-117.2h-117.2z" id="&lt;Path&gt;"/>
		<path class="s0" d="m444.1 147.2c0 5.5-1 10.5-3.1 14.9-2 4.4-4.7 8.1-8.1 11-3.3 2.8-7.2 5.1-11.6 7-4.4 1.8-9 3.2-13.6 3.9-4.5 0.8-9.3 1.2-14.3 1.2h-55v-133.4h50.3c4.1 0 8 0.1 11.6 0.5 3.6 0.3 7.3 0.9 11.2 1.7 3.9 0.9 7.4 2.2 10.5 4 3 1.7 5.8 3.8 8.2 6.2 2.6 2.5 4.6 5.8 5.9 9.7 1.3 3.7 2 8.1 2 12.8 0 7.4-2.2 13.9-6.4 19.1-3.1 3.8-6.9 6.8-11.5 9 6.2 1.8 11.4 5.1 15.6 9.8 5.5 6.1 8.3 13.7 8.3 22.6zm-73.1 9.9h23.6c3 0 5.8-0.5 8.3-1.3 2.4-0.8 4.4-2.2 6.2-4.3 1.7-2 2.5-4.5 2.5-7.6 0-2.5-0.6-4.5-1.8-6.2-1.2-1.7-2.9-2.9-5-3.7-2.4-0.9-4.7-1.5-6.9-1.9-2.3-0.3-4.7-0.5-7.3-0.5h-19.6zm34.5-65.6q0-3.3-1.4-5.6c-0.9-1.6-2.1-2.7-3.7-3.5q-2.7-1.3-5.6-1.9-3-0.6-6.4-0.6h-17.4v23.7h18.6c4.6 0 8.5-1.1 11.6-3.1 2.9-1.9 4.3-4.9 4.3-9z" fill-rule="evenodd" id="&lt;Compound Path&gt;"/>
	</g>
</svg>