<svg id="Layer_1" data-name="Layer 1" xmlns="http://www.w3.org/2000/svg" xmlns:xlink="http://www.w3.org/1999/xlink" viewBox="0 0 283.46 54.76"><defs><style>.cls-1{fill:#231f20;}.cls-2{fill:url(#linear-gradient);}.cls-3{fill:url(#linear-gradient-2);}.cls-4{fill:url(#linear-gradient-3);}.cls-5{fill:url(#linear-gradient-4);}.cls-6{fill:url(#linear-gradient-5);}.cls-7{fill:url(#linear-gradient-6);}</style><linearGradient id="linear-gradient" x1="198.95" y1="311.38" x2="251.17" y2="259.17" gradientUnits="userSpaceOnUse"><stop offset="0" stop-color="#2e3191"/><stop offset="1" stop-color="#00adee"/></linearGradient><linearGradient id="linear-gradient-2" x1="2.47" y1="52.29" x2="54.68" y2="0.07" xlink:href="#linear-gradient"/><linearGradient id="linear-gradient-3" x1="208.01" y1="320.43" x2="260.22" y2="268.22" xlink:href="#linear-gradient"/><linearGradient id="linear-gradient-4" x1="189.9" y1="302.33" x2="242.12" y2="250.12" xlink:href="#linear-gradient"/><linearGradient id="linear-gradient-5" x1="198.94" y1="311.37" x2="251.16" y2="259.16" xlink:href="#linear-gradient"/><linearGradient id="linear-gradient-6" x1="198.96" y1="311.38" x2="251.17" y2="259.17" xlink:href="#linear-gradient"/></defs><title>cimic</title><polygon class="cls-1" points="193.92 0 192.18 0 176.62 31.07 176.47 31.07 160.91 0 159.17 0 145.41 53.99 157.6 53.99 163.55 30.88 163.7 30.88 175.74 54.76 177.35 54.76 189.39 30.88 189.55 30.88 195.5 53.99 207.68 53.99 193.92 0"/><path class="cls-1" d="M275,267.11a27.38,27.38,0,0,0,38.65,38.78L305,297.22a15.21,15.21,0,1,1,0-21.49l8.68-8.68a27.37,27.37,0,0,0-38.65.06Z" transform="translate(-196.49 -259.09)"/><path class="cls-1" d="M441.3,267.11A27.38,27.38,0,0,0,480,305.89l-8.67-8.67a15.21,15.21,0,1,1,0-21.49l8.67-8.68a27.37,27.37,0,0,0-38.65.06Z" transform="translate(-196.49 -259.09)"/><rect class="cls-1" x="124.96" y="0.76" width="12.01" height="53.24"/><rect class="cls-1" x="216.12" y="0.76" width="12.01" height="53.24"/><path class="cls-2" d="M204.86,297.11a8.36,8.36,0,1,0,5.92,2.45A8.31,8.31,0,0,0,204.86,297.11Z" transform="translate(-196.49 -259.09)"/><rect class="cls-3" x="38.23" y="0.12" width="16.41" height="16.41"/><path class="cls-4" d="M238,294.69H248a3.29,3.29,0,0,0,3.28-3.29v-9.95a3.28,3.28,0,0,0-3.28-3.28H234.72V291.4A3.29,3.29,0,0,0,238,294.69Z" transform="translate(-196.49 -259.09)"/><path class="cls-5" d="M228.88,259.1h-9.94a3.3,3.3,0,0,0-3.29,3.29v9.95a3.29,3.29,0,0,0,3.29,3.28h13.23V262.39A3.29,3.29,0,0,0,228.88,259.1Z" transform="translate(-196.49 -259.09)"/><path class="cls-6" d="M240.21,313.71h5.53a5.46,5.46,0,0,0,5.46-5.47v-5.52a5.46,5.46,0,0,0-5.46-5.47H238a6.47,6.47,0,0,1-1-.08,5.89,5.89,0,0,1-4.09-2.94,5.89,5.89,0,0,1-.58-1.53,5.76,5.76,0,0,1-.15-1.3v-8.33a4.87,4.87,0,0,0-4.87-4.87h-8.33a6.47,6.47,0,0,1-1-.08,6,6,0,0,1-1.8-.64,6,6,0,0,1-2.29-2.3,5.89,5.89,0,0,1-.58-1.53,5.76,5.76,0,0,1-.15-1.3v-7.78a5.47,5.47,0,0,0-5.47-5.47h-5.52a5.47,5.47,0,0,0-5.47,5.47v5.57a5.47,5.47,0,0,0,5.47,5.47H207a9.11,9.11,0,0,1,4.55,1.48,9.24,9.24,0,0,1,2.66,2.66,6.56,6.56,0,0,1,.35.59,9,9,0,0,1,1.14,4.4v4.45a5.47,5.47,0,0,0,5.47,5.47H226a9.1,9.1,0,0,1,2.62.52,9.47,9.47,0,0,1,1.94,1,9.2,9.2,0,0,1,2.65,2.66c.12.19.24.38.36.59a9.16,9.16,0,0,1,1.13,4.41v4.44A5.47,5.47,0,0,0,240.21,313.71Z" transform="translate(-196.49 -259.09)"/><path class="cls-7" d="M222.23,313.75h3.36a6.6,6.6,0,0,0,6.6-6.59V303.8a6.61,6.61,0,0,0-6.6-6.6h-4.44a8,8,0,0,1-8-8v-4.44a6.6,6.6,0,0,0-6.59-6.6h-3.36a6.61,6.61,0,0,0-6.6,6.6v3.36a6.43,6.43,0,0,0,6.6,6.39h1.68a11.13,11.13,0,0,1,7.62,3.06,10.79,10.79,0,0,1,3.36,7.92v1.68A6.42,6.42,0,0,0,222.23,313.75Z" transform="translate(-196.49 -259.09)"/></svg>