<?xml version="1.0" encoding="UTF-8" standalone="no"?>
<!-- Created with Inkscape (http://www.inkscape.org/) -->

<svg
   xmlns:svg="http://www.w3.org/2000/svg"
   xmlns="http://www.w3.org/2000/svg"
   version="1.1"
   width="125.66"
   height="29.584"
   id="svg4068">
  <defs
     id="defs4070" />
  <g
     transform="translate(-342.88529,-488.99873)"
     id="layer1">
    <path
       d="m 343.20029,518.34622 1.73125,0 2.47875,-2.39875 c 2.2025,1.76875 4.99625,2.635 7.8275,2.635 2.5175,0 5.2325,-0.55125 7.23875,-2.16375 2.125,-1.77 3.30375,-4.2875 3.30375,-7.0025 0,-6.885 -5.34875,-8.53625 -11.01375,-9.7175 l -2.47875,-0.47125 c -2.2825,-0.4725 -4.8775,-1.25875 -4.8775,-4.09125 0,-2.87125 2.91,-4.0925 5.38875,-4.0925 4.8775,0 8.30125,4.28875 9.75625,8.49875 l 1.9675,0 -0.51125,-10.3075 -1.6925,0 -2.12375,1.9275 c -2.085,-1.455 -4.3675,-2.16375 -6.885,-2.16375 -5.58625,0 -10.425,2.91125 -10.425,8.97 0,2.55625 1.29875,4.99625 3.34375,6.49125 2.44,1.80875 4.9175,2.36 7.82875,2.91125 l 2.8325,0.55 c 2.36,0.4325 4.21,1.495 4.21,4.13 0,3.1875 -2.95125,4.485 -5.705,4.485 -5.27125,0 -9.00875,-4.79875 -10.5825,-9.28375 l -1.9275,0 0.315,11.09375 z"
       id="path24"
       style="fill:#008ac9;fill-opacity:1;fill-rule:nonzero;stroke:none" />
    <path
       d="m 343.20029,518.34622 1.73125,0 2.47875,-2.39875 c 2.2025,1.76875 4.99625,2.635 7.8275,2.635 2.5175,0 5.2325,-0.55125 7.23875,-2.16375 2.125,-1.77 3.30375,-4.2875 3.30375,-7.0025 0,-6.885 -5.34875,-8.53625 -11.01375,-9.7175 l -2.47875,-0.47125 c -2.2825,-0.4725 -4.8775,-1.25875 -4.8775,-4.09125 0,-2.87125 2.91,-4.0925 5.38875,-4.0925 4.8775,0 8.30125,4.28875 9.75625,8.4975 l 1.9675,0 -0.51125,-10.30625 -1.6925,0 -2.12375,1.9275 c -2.085,-1.455 -4.3675,-2.16375 -6.885,-2.16375 -5.58625,0 -10.425,2.91125 -10.425,8.97 0,2.55625 1.29875,4.99625 3.34375,6.49125 2.44,1.80875 4.91875,2.36 7.83,2.91125 l 2.83125,0.55 c 2.36,0.4325 4.21,1.495 4.21,4.13 0,3.1875 -2.95125,4.485 -5.705,4.485 -5.27125,0 -9.00875,-4.79875 -10.5825,-9.28375 l -1.9275,0 0.315,11.09375 z"
       id="path28"
       style="fill:none;stroke:none" />
    <path
       d="m 379.51392,511.10823 c 0,4.0525 -2.4,4.9175 -3.73625,4.9175 -1.73125,0 -2.5975,-1.14125 -2.5975,-2.75375 0,-2.9125 2.00625,-3.65875 6.33375,-4.6025 l 0,2.43875 z m 0.0788,-4.40625 c -3.855,0.865 -12.86375,1.73 -12.86375,7.16 0,1.80875 0.7075,2.99 1.81,3.69875 1.10125,0.74625 2.635,1.02125 4.20875,1.02125 2.71375,0 5.665,-0.865 7.63125,-2.71375 0.59,1.81 2.63625,2.71375 4.24875,2.71375 1.6925,0 4.17125,-1.37625 4.17125,-3.1075 0,-0.70875 -0.43375,-0.63 -0.59,-0.63 -0.70875,0 -1.14125,0.59125 -1.4175,0.59125 -0.78625,0 -1.18,-0.355 -1.18,-2.79375 l 0,-6.49125 0,-1.21875 c 0,-1.57375 -0.19625,-6.02 -8.89125,-6.02 -5.9,0 -8.92875,2.36125 -8.92875,4.9575 0,1.77 1.3375,2.95 3.0675,2.95 1.535,0 3.22625,-0.78625 3.22625,-2.55625 0,-1.0625 -0.98375,-1.77125 -0.98375,-2.2825 0,-0.35375 1.1025,-1.10125 3.34375,-1.10125 3.03,0 3.1475,2.2825 3.1475,4.99625 l 0,0.82625 z"
       id="path32"
       style="fill:#008ac9;fill-opacity:1;fill-rule:evenodd;stroke:none" />
    <path
       d="m 379.51392,511.10823 c 0,4.0525 -2.4,4.9175 -3.73625,4.9175 -1.73125,0 -2.5975,-1.14125 -2.5975,-2.75375 0,-2.9125 2.00625,-3.65875 6.33375,-4.6025 l 0,2.43875 z m 0.0788,-4.40625 c -3.855,0.865 -12.86375,1.73 -12.86375,7.16 0,1.80875 0.7075,2.99 1.81,3.69875 1.10125,0.74625 2.635,1.02125 4.20875,1.02125 2.71375,0 5.665,-0.865 7.63125,-2.71375 0.59,1.81 2.63625,2.71375 4.24875,2.71375 1.6925,0 4.17125,-1.37625 4.17125,-3.1075 0,-0.70875 -0.43375,-0.63 -0.59,-0.63 -0.70875,0 -1.14125,0.59125 -1.41625,0.59125 -0.7875,0 -1.18125,-0.355 -1.18125,-2.79375 l 0,-6.49125 0,-1.21875 c 0,-1.57375 -0.19625,-6.02 -8.89125,-6.02 -5.9,0 -8.92875,2.36125 -8.92875,4.9575 0,1.77 1.3375,2.95 3.0675,2.95 1.535,0 3.22625,-0.78625 3.22625,-2.55625 0,-1.0625 -0.98375,-1.77125 -0.98375,-2.2825 0,-0.35375 1.1025,-1.10125 3.34375,-1.10125 3.03,0 3.1475,2.28125 3.1475,4.99625 l 0,0.82625 z"
       id="path36"
       style="fill:none;stroke:none" />
    <path
       d="m 388.86729,517.99223 11.96,0 0,-1.96625 -1.6925,0 c -0.47125,0 -0.94375,-0.2375 -1.06125,-0.74875 l 0,-6.45125 c 0,-1.41625 0.0788,-2.75375 0.7075,-4.05125 0.66875,-1.3775 1.9675,-2.36125 3.50125,-2.36125 0.78625,0 1.53375,0.39375 2.045,0.905 0.7475,0.7475 0.7475,1.69125 0.82625,2.675 l 0,8.18375 c 0,0.3925 0,0.74625 -0.1175,1.14 -0.0387,0.11875 -0.0788,0.23625 -0.1575,0.35375 -0.70875,0.51125 -1.69125,0.27625 -2.4775,0.355 l 0,1.96625 11.80125,0 0,-1.96625 c -0.275,0 -2.045,0.0388 -2.675,-0.27625 -0.23625,-0.19625 -0.275,-0.39375 -0.275,-0.7075 l 0,-7.86875 c 0,-2.045 0.11625,-4.05125 -1.0625,-5.8225 -1.22,-1.80875 -3.4225,-2.43875 -5.46875,-2.43875 -2.98875,0 -5.27125,1.61375 -6.6875,3.97375 l -0.0788,0 0,-3.58 -9.245,0.39375 0,2.00625 0.7475,0 c 2.20375,0.0788 2.5175,0.23625 2.5175,2.4775 l 0,9.875 c 0,0.62875 0.11875,1.57375 -0.66875,1.77 -0.78625,0.1575 -1.6125,0.1575 -2.43875,0.1975 l 0,1.96625 z"
       id="path40"
       style="fill:#008ac9;fill-opacity:1;fill-rule:nonzero;stroke:none" />
    <path
       d="m 388.86729,517.99223 11.96,0 0,-1.96625 -1.6925,0 c -0.47125,0 -0.94375,-0.23625 -1.06125,-0.74875 l 0,-6.45125 c 0,-1.41625 0.0788,-2.75375 0.7075,-4.05125 0.66875,-1.3775 1.9675,-2.36125 3.50125,-2.36125 0.78625,0 1.53375,0.39375 2.045,0.905 0.7475,0.7475 0.7475,1.6925 0.82625,2.675 l 0,8.18375 c 0,0.3925 0,0.74625 -0.1175,1.14 -0.0387,0.11875 -0.0788,0.23625 -0.1575,0.35375 -0.70875,0.51125 -1.69125,0.27625 -2.4775,0.355 l 0,1.96625 11.80125,0 0,-1.96625 c -0.275,0 -2.045,0.0388 -2.675,-0.27625 -0.23625,-0.19625 -0.275,-0.39375 -0.275,-0.7075 l 0,-7.86875 c 0,-2.045 0.11625,-4.05125 -1.0625,-5.8225 -1.22,-1.80875 -3.4225,-2.43875 -5.46875,-2.43875 -2.98875,0 -5.27125,1.61375 -6.6875,3.97375 l -0.0788,0 0,-3.58 -9.245,0.39375 0,2.00625 0.7475,0 c 2.20375,0.0788 2.5175,0.23625 2.5175,2.47875 l 0,9.87375 c 0,0.62875 0.11875,1.57375 -0.66875,1.77 -0.78625,0.1575 -1.6125,0.1575 -2.43875,0.1975 l 0,1.96625 z"
       id="path44"
       style="fill:none;stroke:none" />
    <path
       d="m 416.74604,501.66647 0,7.51375 c 0,1.25875 -0.04,2.5575 0.0788,3.855 0.0788,1.3375 0.1575,2.8725 1.10125,3.93375 1.14125,1.25875 2.8325,1.61375 4.445,1.61375 4.68125,0 6.61,-3.18625 6.61,-7.515 l 0,-0.31375 -2.00625,0 c 0.0387,1.45625 -0.4725,4.72 -2.5575,4.72 -0.7875,0 -1.25875,-0.35375 -1.45625,-1.14 -0.1175,-0.55125 -0.1175,-1.10125 -0.1175,-1.69125 l 0,-10.97625 5.1925,0 0,-2.36 -5.1925,0 0,-7.8675 -2.4,0 c -0.66875,4.05125 -1.80875,7.5125 -6.49125,8.1425 l 0,2.085 2.79375,0 z"
       id="path48"
       style="fill:#008ac9;fill-opacity:1;fill-rule:nonzero;stroke:none" />
    <path
       d="m 416.74604,501.66647 0,7.51375 c 0,1.25875 -0.04,2.5575 0.0788,3.855 0.0788,1.3375 0.1575,2.8725 1.10125,3.93375 1.14125,1.25875 2.8325,1.61375 4.445,1.61375 4.68125,0 6.61,-3.18625 6.61,-7.515 l 0,-0.31375 -2.00625,0 c 0.0387,1.45625 -0.4725,4.72 -2.5575,4.72 -0.7875,0 -1.25875,-0.35375 -1.45625,-1.14 -0.1175,-0.55125 -0.1175,-1.10125 -0.1175,-1.69125 l 0,-10.97625 5.1925,0 0,-2.36 -5.1925,0 0,-7.8675 -2.4,0 c -0.66875,4.05125 -1.80875,7.5125 -6.49125,8.1425 l 0,2.085 2.79375,0 z"
       id="path52"
       style="fill:none;stroke:none" />
    <path
       d="m 439.87304,500.87972 c 3.855,0 4.13125,5.075 4.13125,7.8675 0,2.44 -0.2375,7.86875 -3.69875,7.86875 -4.16875,0 -4.32625,-4.8 -4.32625,-7.82875 0,-2.5175 0.27375,-7.9075 3.89375,-7.9075 m 0.19625,17.7025 c 5.705,0 10.7,-3.855 10.7,-9.795 0,-5.8225 -4.95625,-9.875 -10.66,-9.875 -2.8725,0 -5.2725,0.7875 -7.475,2.5575 -2.12375,1.69125 -3.4225,4.40625 -3.4225,7.12 0,6.0975 4.9175,9.9925 10.8575,9.9925"
       id="path56"
       style="fill:#008ac9;fill-opacity:1;fill-rule:evenodd;stroke:none" />
    <path
       d="m 439.87304,500.87972 c 3.855,0 4.13125,5.075 4.13125,7.8675 0,2.44 -0.2375,7.86875 -3.69875,7.86875 -4.16875,0 -4.32625,-4.8 -4.32625,-7.82875 0,-2.5175 0.27375,-7.9075 3.89375,-7.9075 z m 0.19625,17.7025 c 5.705,0 10.7,-3.855 10.7,-9.795 0,-5.8225 -4.95625,-9.875 -10.66,-9.875 -2.8725,0 -5.2725,0.7875 -7.475,2.5575 -2.12375,1.69125 -3.4225,4.40625 -3.4225,7.12 0,6.0975 4.9175,9.9925 10.8575,9.9925 z"
       id="path60"
       style="fill:none;stroke:none" />
    <path
       d="m 455.00954,517.24498 c 1.3775,0.865 3.93375,1.3375 5.5475,1.3375 0.82625,0 2.085,-0.19625 2.87125,-0.39375 1.6525,-0.47125 2.44,-0.82625 3.61875,-2.085 1.0625,-1.14 1.49625,-2.71375 1.49625,-4.17 0,-2.00625 -1.02375,-3.7375 -2.755,-4.68125 -1.29875,-0.7075 -2.91,-1.06125 -4.36625,-1.41625 l -1.84875,-0.4725 c -1.14,-0.275 -3.34375,-0.51 -3.34375,-2.08375 0,-1.85 1.8875,-2.4 3.4625,-2.4 2.7125,0 4.64125,1.96625 5.93875,4.13 0.1575,0.11875 0.1575,0.315 0.27625,0.4325 l 1.73125,0 -0.1575,-6.13625 -1.57375,0 -1.495,0.905 c -1.3375,-0.7875 -3.1875,-1.29875 -4.76,-1.29875 -3.85625,0 -7.67125,2.00625 -7.67125,6.255 0,1.73125 0.4725,2.99 1.73125,4.13125 1.415,1.2975 2.635,1.6125 4.445,2.00625 l 2.4775,0.51125 c 1.92875,0.4325 4.13125,1.0225 3.10875,3.58 -0.7475,0.98375 -2.04625,1.25875 -3.22625,1.25875 -3.5,0 -5.665,-2.5175 -7.08,-5.38875 l -1.73125,0 0.19625,6.72625 1.535,0 1.5725,-0.7475 z"
       id="path64"
       style="fill:#008ac9;fill-opacity:1;fill-rule:nonzero;stroke:none" />
    <path
       d="m 455.00954,517.24498 c 1.3775,0.865 3.93375,1.3375 5.5475,1.3375 0.82625,0 2.085,-0.19625 2.87125,-0.39375 1.6525,-0.47125 2.44,-0.82625 3.61875,-2.085 1.0625,-1.14 1.49625,-2.71375 1.49625,-4.17 0,-2.00625 -1.02375,-3.7375 -2.755,-4.68125 -1.29875,-0.7075 -2.91,-1.06125 -4.36625,-1.41625 l -1.84875,-0.4725 c -1.14,-0.275 -3.34375,-0.51 -3.34375,-2.08375 0,-1.85 1.8875,-2.4 3.4625,-2.4 2.7125,0 4.64125,1.96625 5.93875,4.13 0.1575,0.11875 0.1575,0.315 0.27625,0.4325 l 1.73125,0 -0.1575,-6.13625 -1.57375,0 -1.495,0.905 c -1.3375,-0.7875 -3.1875,-1.29875 -4.76,-1.29875 -3.85625,0 -7.67125,2.00625 -7.67125,6.255 0,1.73125 0.4725,2.99 1.73125,4.13125 1.415,1.2975 2.635,1.6125 4.445,2.00625 l 2.4775,0.51125 c 1.92875,0.4325 4.13125,1.0225 3.10875,3.58 -0.7475,0.98375 -2.04625,1.25875 -3.22625,1.25875 -3.5,0 -5.665,-2.5175 -7.08,-5.38875 l -1.73125,0 0.19625,6.72625 1.535,0 1.5725,-0.7475 z"
       id="path68"
       style="fill:none;stroke:none" />
  </g>
</svg>
