<svg id="Layer_1" data-name="Layer 1" xmlns="http://www.w3.org/2000/svg" viewBox="0 0 232 59">
  <g>
    <g>
      <g>
        <path d="M103.11,9a5.15,5.15,0,0,0-3.24-1.22c-.89,0-2.11.57-2.11,1.54s1.3,1.45,2.19,1.78l1.22.4c2.59.81,4.62,2.11,4.62,5.1a6.18,6.18,0,0,1-2,5,8.25,8.25,0,0,1-5.27,1.78A11.94,11.94,0,0,1,92,21.25l2.1-3.88a6.64,6.64,0,0,0,4.3,1.94c1.13,0,2.35-.57,2.35-1.86s-1.94-1.86-2.92-2.1c-3-.81-5-1.62-5-5.26,0-3.8,2.67-6.23,6.4-6.23a12.61,12.61,0,0,1,5.84,1.54Zm9.08-6.64v9.39h.08a4.69,4.69,0,0,1,4-2c3.25,0,4.79,2.11,4.79,5.34v7.69h-4.46V16.23c0-1.45-.24-3-2-3s-2.35,1.54-2.35,3v6.48h-4.46V2.32Z" style="fill: #dd1d21;fill-rule: evenodd"/>
        <path d="M137,17.09h-9.48a2.57,2.57,0,0,0,2.84,2.84,2.21,2.21,0,0,0,2.11-1.14h4.29c-.73,3-3.56,4.37-6.4,4.37-4.22,0-7.3-2.35-7.3-6.71,0-4.21,2.84-6.72,7-6.72,4.38,0,7,2.67,7,7Zm-4.21-2.58a2.52,2.52,0,0,0-2.51-2,2.63,2.63,0,0,0-2.68,2Z" style="fill: #dd1d21"/>
        <rect x="138.51" y="2.29" width="4.59" height="20.34" style="fill: #dd1d21"/>
        <rect x="145.68" y="2.29" width="4.59" height="20.34" style="fill: #dd1d21"/>
      </g>
      <polygon points="110.97 28.69 118.03 28.69 130.92 45.19 131 45.19 131 28.69 138.05 28.69 138.05 55.63 131 55.63 118.11 39.13 118.03 39.13 118.03 55.63 110.97 55.63 110.97 28.69" style="fill: #0097bb;fill-rule: evenodd"/>
      <polygon points="205.09 28.69 213.52 28.69 218.54 36.05 223.57 28.69 232 28.69 222.03 42.68 222.03 55.63 214.98 55.63 214.98 42.68 205.09 28.69" style="fill: #0097bb;fill-rule: evenodd"/>
      <path d="M208.41,40.58c-.08,4-.32,7.28-2.76,10.68-2.67,3.64-6.64,5.25-11.1,5.25-8.51,0-14.43-5.74-14.43-14.23,0-8.74,5.92-14.48,14.67-14.48,5.51,0,9.81,2.51,12.16,7.52l-6.65,2.75a6.06,6.06,0,0,0-5.83-4.28c-4.62,0-7.05,4.36-7.05,8.49s2.51,8.41,7.13,8.41c3.08,0,5.35-1.54,5.67-4.69h-5.75V40.5h13.94Z" style="fill: #0097bb;fill-rule: evenodd"/>
      <path d="M173.15,44.62c3.81-.64,5.92-3.88,5.92-7.6,0-5.74-4.06-8.25-9.41-8.25H159.21v5.91H166V31.52l8.43,5.5L166,42.44V39.12h-6.81v16.5h7V45.27h.08L173,55.62h8.75Z" style="fill: #0097bb;fill-rule: evenodd"/>
      <polygon points="99.79 34.59 99.79 39.13 107.73 39.13 107.73 45.03 99.79 45.03 99.79 49.72 108.14 49.72 108.14 55.63 92.82 55.63 92.82 28.69 108.14 28.69 108.14 34.59 99.79 34.59" style="fill: #0097bb;fill-rule: evenodd"/>
      <polygon points="148.02 34.59 148.02 39.13 155.96 39.13 155.96 45.03 148.02 45.03 148.02 49.72 156.37 49.72 156.37 55.63 141.05 55.63 141.05 28.69 156.37 28.69 156.37 34.59 148.02 34.59" style="fill: #0097bb;fill-rule: evenodd"/>
    </g>
    <path d="M28.32,55.46h-15L12,44.38,2.81,37.67a28.8,28.8,0,0,1-.57-5.91,29.57,29.57,0,0,1,59.13,0,28.27,28.27,0,0,1-.57,5.91L51.73,44.3,50.36,55.38H35.29L34.4,56a4.26,4.26,0,0,1-2.59.81,4.74,4.74,0,0,1-2.6-.81Z" style="fill: none;stroke: #fff;stroke-width: 2.558000087738037px"/>
    <path d="M28.32,55.46h-15L12,44.38,2.81,37.67a28.8,28.8,0,0,1-.57-5.91,29.57,29.57,0,0,1,59.13,0,28.27,28.27,0,0,1-.57,5.91L51.73,44.3,50.36,55.38H35.29L34.4,56a4.26,4.26,0,0,1-2.59.81,4.74,4.74,0,0,1-2.6-.81Z" style="fill: #fbce07;fill-rule: evenodd"/>
    <path d="M28.37,55.51h-15L12,44.43,2.85,37.71a29.57,29.57,0,1,1,58.56-5.9,28.93,28.93,0,0,1-.56,5.9l-9.07,6.64L50.4,55.43H35.33l-.89.64a4.26,4.26,0,0,1-2.59.81,4.65,4.65,0,0,1-2.59-.81Zm.48-5.18H17.92l-1.13-8.82L7.88,35a13.61,13.61,0,0,1-.41-3.15,13.83,13.83,0,0,1,1-5.1l16,16.1L9,23.72a12.47,12.47,0,0,1,3.89-6.39L26.75,41.27,14.44,15.07a12.91,12.91,0,0,1,6.31-4.45L29.26,40.3,23,9.32a12.72,12.72,0,0,1,6.16-1.61,7.88,7.88,0,0,1,1.37.08l1.3,32.11,1.3-32.11c.4,0,.89-.08,1.37-.08a12.5,12.5,0,0,1,6.16,1.61l-6.24,30.9L43,10.54A12.52,12.52,0,0,1,49.26,15L37,41.19,50.88,17.25a12.8,12.8,0,0,1,3.89,6.39L39.3,42.81l16-16.1a12.23,12.23,0,0,1,1.05,5.1,14.16,14.16,0,0,1-.4,3.15l-9,6.55-1.14,8.82H34.85l-1.62,1.21a2.19,2.19,0,0,1-2.76,0Z" style="fill: #dd1d21;fill-rule: evenodd"/>
  </g>
</svg>
