<?xml version="1.0" encoding="UTF-8"?><svg id="Layer_2" xmlns="http://www.w3.org/2000/svg" xmlns:xlink="http://www.w3.org/1999/xlink" viewBox="0 0 215.43 173.07"><defs><style>.cls-1{fill:none;}.cls-1,.cls-2,.cls-3{stroke-width:0px;}.cls-2{fill:#241f20;}.cls-3{fill:#d71638;}.cls-4{clip-path:url(#clippath);}</style><clipPath id="clippath"><rect class="cls-1" y="0" width="215.43" height="173.07"/></clipPath></defs><g id="Layer_1-2"><g class="cls-4"><path class="cls-3" d="m139.46,9.42c4.15,3.48-.96,14.18-5.77,20.96-8.63,12.16-15.75,16.49-20.49,15.89.51-.6,1.01-1.26,1.49-1.99,4.43-6.8,6.09-13.9,4.83-22.77h0c4.79-4.63,16.46-15.01,19.93-12.1h0Z"/><path class="cls-3" d="m119.53,21.51h0s0,0,0,0c-1.01.97-1.72,1.7-1.96,1.98-11.56,12.91-9.68,19.56-7.54,21.38.89.76,1.96,1.24,3.19,1.4-1.6,1.88-3.36,3.17-5.07,4.03-1.6-3-4.28-6.61-8.54-10.83-.57-.57-3.28-2.98-6.71-5.65C93.46,20.29,100.18.28,105.76,0c5.33-.27,12.1,11.31,13.77,21.51h0Z"/></g><path class="cls-3" d="m108.13,50.31c3.25,6.09,2.09,9.71.66,11.08-4.33,4.15-13.36,1.63-25.66-13.71-5.45-6.8-11.45-17.69-7.32-21.58,2.68-2.53,11,3,17.07,7.72-.01.26-.02.52-.03.77-.42,7.61.95,15.62,8.19,17.05,1.54.3,4.14.1,6.91-1.24.06-.03.11-.06.17-.09h0Z"/><polygon class="cls-2" points="45.87 71.91 40.72 71.91 34.13 101.47 25.53 72.15 25.46 71.91 20.31 71.91 12.01 101.38 5.46 72.18 5.4 71.91 0 71.91 8.74 110.2 8.8 110.46 14.58 110.46 22.84 80.67 31.26 110.22 31.33 110.46 36.97 110.46 45.81 72.14 45.87 71.91 45.87 71.91"/><path class="cls-2" d="m186.51,103.68v-31.94h-5.07v13.44c-.74-.67-1.59-1.25-2.53-1.73-1.71-.85-3.62-1.3-5.53-1.3-2.01,0-3.83.43-5.41,1.29-2.12,1.15-3.75,3.03-4.85,5.57-.93,2.17-1.42,4.78-1.42,7.53,0,3.72.93,7.18,2.6,9.74.98,1.5,2.21,2.68,3.65,3.5,1.59.9,3.41,1.36,5.42,1.36s3.81-.45,5.49-1.34c.95-.5,1.85-1.15,2.66-1.95l.11,2.52h5.2l-.13-2.09c-.09-1.43-.19-3.06-.19-4.63m-5.18-7.63c0,3.05-.6,5.58-1.74,7.32-.62.97-1.4,1.69-2.37,2.21-1.05.56-2.33.84-3.79.84-1.22,0-2.23-.3-3.11-.91-.58-.4-1.09-.95-1.54-1.66-.61-.95-1.06-2.17-1.36-3.63-.25-1.21-.39-2.6-.39-4.02,0-2.56.55-4.86,1.55-6.46.57-.9,1.27-1.59,2.09-2.06.92-.53,1.97-.79,3.23-.79s2.45.25,3.43.74c1.32.67,2.33,1.79,3.03,3.32.64,1.42.97,3.18.97,5.09"/><path class="cls-2" d="m63.06,83.39c-1.72-.85-3.69-1.28-5.84-1.28s-4.12.43-5.84,1.27c-2.35,1.14-4.26,3.06-5.53,5.56-1.15,2.25-1.76,4.9-1.76,7.67,0,3.77,1.12,7.27,3.16,9.87,1.13,1.44,2.52,2.57,4.13,3.35,1.73.84,3.69,1.27,5.84,1.27s4.11-.43,5.84-1.27c2.35-1.14,4.26-3.06,5.54-5.55,1.15-2.25,1.76-4.91,1.76-7.67,0-3.77-1.12-7.27-3.17-9.87-1.13-1.45-2.52-2.58-4.13-3.35m-2.31,22.1c-1.03.58-2.22.88-3.53.88s-2.5-.3-3.53-.88c-1.35-.77-2.47-2.08-3.22-3.79-.67-1.53-1.04-3.34-1.04-5.09,0-2.44.68-4.85,1.87-6.61.66-.98,1.47-1.75,2.39-2.28,1.02-.58,2.21-.88,3.53-.88s2.51.3,3.53.88c1.36.77,2.48,2.09,3.23,3.79.67,1.51,1.04,3.32,1.04,5.09,0,2.44-.68,4.85-1.87,6.6-.67.99-1.47,1.75-2.4,2.28"/><path class="cls-2" d="m91.61,83.55c-1.74-.85-3.7-1.28-5.83-1.28s-4.1.43-5.84,1.28c-2.35,1.14-4.26,3.06-5.53,5.56-1.15,2.25-1.76,4.9-1.76,7.66,0,3.77,1.12,7.28,3.16,9.87,1.13,1.44,2.52,2.57,4.13,3.35,1.73.84,3.69,1.27,5.84,1.27s4.1-.43,5.83-1.27c2.35-1.15,4.27-3.07,5.54-5.56,1.15-2.25,1.76-4.9,1.76-7.66,0-3.77-1.13-7.28-3.16-9.87-1.14-1.45-2.53-2.58-4.13-3.35m1.96,13.22c0,2.41-.7,4.87-1.87,6.6-.67.99-1.47,1.75-2.39,2.28-1.04.59-2.23.89-3.54.89s-2.5-.3-3.53-.89c-1.36-.77-2.47-2.08-3.22-3.79-.67-1.53-1.04-3.34-1.04-5.09,0-2.39.7-4.86,1.87-6.6.67-1,1.48-1.76,2.4-2.28,1.02-.59,2.21-.88,3.53-.88s2.51.3,3.53.88c1.36.77,2.47,2.09,3.22,3.8.67,1.51,1.04,3.32,1.04,5.08"/><path class="cls-2" d="m126,103.79v-31.94h-5.07v13.44c-.73-.67-1.58-1.25-2.53-1.73-1.7-.85-3.61-1.3-5.53-1.3s-3.83.43-5.41,1.29c-2.13,1.16-3.76,3.04-4.84,5.57-.93,2.18-1.43,4.78-1.43,7.54,0,3.72.93,7.17,2.61,9.74.98,1.5,2.21,2.68,3.65,3.5,1.6.9,3.42,1.36,5.43,1.36s3.82-.45,5.49-1.34c.95-.5,1.84-1.15,2.66-1.95l.1,2.53h5.2l-.11-1.8c-.1-1.53-.21-3.26-.21-4.92m-5.18-7.63c0,3.04-.6,5.58-1.73,7.32-.63.97-1.41,1.69-2.37,2.21-1.05.56-2.32.84-3.79.84-1.22,0-2.23-.3-3.1-.91-.59-.4-1.11-.96-1.55-1.66-.6-.96-1.07-2.21-1.36-3.63-.25-1.23-.39-2.62-.39-4.02,0-2.56.55-4.85,1.56-6.46.57-.9,1.26-1.6,2.08-2.06.92-.53,1.98-.79,3.23-.79s2.45.25,3.43.74c1.31.67,2.34,1.79,3.03,3.32.64,1.42.98,3.18.98,5.09"/><path class="cls-2" d="m146.2,95.09c-2.15-.74-4.09-1.22-5.82-1.66-1.11-.28-2.08-.52-2.9-.78-1.02-.32-1.72-.66-2.14-1.05-.19-.17-.33-.37-.43-.6-.1-.24-.15-.51-.15-.86,0-.54.12-1,.37-1.41.34-.55.92-.99,1.74-1.29.78-.29,1.75-.45,2.81-.45,1.57,0,2.87.28,3.79.8.49.28.85.61,1.12,1.01.3.45.47.97.53,1.58l.08.88h5.33l-.08-1.04c-.11-1.45-.48-2.73-1.09-3.78-.86-1.5-2.19-2.61-3.96-3.3-1.5-.59-3.33-.88-5.43-.88-1.92,0-4.7.3-7.01,1.72-1.09.67-1.95,1.52-2.54,2.53-.66,1.1-.99,2.39-.99,3.83,0,1.28.28,2.42.84,3.41.4.68.92,1.28,1.56,1.78.81.65,1.83,1.18,3.12,1.64,1.12.4,2.29.69,3.51.98l.76.16c1.8.39,3.5.75,4.72,1.33.67.31,1.17.68,1.5,1.1.34.45.5.98.51,1.65,0,.69-.15,1.28-.47,1.81-.42.73-1.14,1.31-2.12,1.71-.92.38-2.08.59-3.26.59-1.79,0-3.28-.31-4.32-.9-.57-.33-1-.72-1.3-1.21-.35-.53-.54-1.16-.59-1.92l-.06-.9h-5.28v.99c.04,1.51.4,2.87,1.07,4.05.92,1.58,2.36,2.79,4.28,3.59,1.61.68,3.49,1.04,5.45,1.04,3.1,0,5.97-.78,8.08-2.18,1.19-.78,2.13-1.77,2.79-2.92.71-1.24,1.07-2.65,1.07-4.21s-.48-3.01-1.39-4.23c-.9-1.2-2.17-2.11-3.69-2.63"/><polygon class="cls-2" points="153.63 77.67 159.22 77.67 159.22 71.93 153.63 71.93 153.63 77.67 153.63 77.67"/><polygon class="cls-2" points="153.89 110.58 158.96 110.58 158.96 83.11 153.89 83.11 153.89 110.58 153.89 110.58"/><path class="cls-2" d="m209.88,101.11c-.34,1.47-1.16,2.8-2.32,3.75-1.2.99-2.67,1.51-4.23,1.51-1.4,0-2.63-.24-3.68-.71-1.42-.64-2.51-1.72-3.26-3.21-.58-1.14-.94-2.54-1.06-4.16h20.09v-.97c0-4.5-.96-8.09-2.86-10.67-1.06-1.45-2.43-2.57-4.05-3.33-1.7-.79-3.71-1.2-5.96-1.2-2.01,0-3.87.42-5.53,1.25-2.26,1.14-4.11,3.04-5.34,5.5-1.14,2.27-1.74,4.95-1.74,7.75,0,3.85,1.06,7.38,2.99,9.95,1.07,1.43,2.38,2.54,3.9,3.3,1.64.82,3.49,1.23,5.52,1.23,3.36,0,6.14-.79,8.23-2.35,2.14-1.59,3.65-4.04,4.5-7.27l.09-.36h-5.3Zm-12.37-11.97c.61-.72,1.34-1.29,2.15-1.67.87-.41,1.86-.62,2.94-.62,1.18,0,2.25.19,3.17.58,1.27.53,2.29,1.44,3.04,2.68.56.95.94,2.11,1.15,3.45h-14.44c.32-1.73,1.01-3.29,1.98-4.42"/><polygon class="cls-2" points="33.96 144.97 51.93 144.97 51.93 139.97 33.96 139.97 33.96 128.41 52.85 128.41 52.85 123.41 28.14 123.41 28.14 162.47 53.27 162.47 53.27 157.47 33.96 157.47 33.96 144.97 33.96 144.97"/><path class="cls-2" d="m77.89,136.3c-1.83-1.22-3.97-1.85-6.37-1.85-3.84,0-6.66,1.5-8.4,4.47l-.2-3.76h-5.5v.23c.06,1.23.09,2.36.09,3.35v23.73h5.66v-16.33c0-2.2.7-4.03,2.09-5.43,1.26-1.28,2.87-1.93,4.78-1.93s3.38.62,4.6,1.85c.9.86,1.35,2.28,1.35,4.22v17.61h5.66v-18.64c0-3.37-1.26-5.9-3.74-7.53h0Z"/><path class="cls-2" d="m127.42,134.46c-4.18,0-6.95,1.51-8.26,4.49l-.08-3.78h-5.51v.23c.06,1.24.09,2.36.09,3.35v23.73h5.66v-14.83c0-5.38,2.39-7.99,7.31-7.99.88,0,1.6.03,2.13.1l.25.03-.03-5.32h-1.56Z"/><path class="cls-2" d="m147.86,140.71c1.44,1.44,2.17,3.79,2.17,7.01,0,3.4-.63,6-1.87,7.72-1.21,1.68-3.12,2.53-5.67,2.53-2.19,0-3.92-.82-5.12-2.43-1.21-1.65-1.82-4.05-1.82-7.14,0-6.63,2.27-9.86,6.94-9.86,2.13,0,3.94.73,5.38,2.17h0Zm2.5-2.49c-1.92-2.5-4.67-3.76-8.2-3.76s-6.6,1.23-8.87,3.66c-2.27,2.43-3.42,5.95-3.42,10.46,0,3.97.96,7.23,2.85,9.71,1.92,2.49,4.96,3.76,9.01,3.76s6.75-1.32,8.28-3.92c-.05,3.92-.42,6.6-1.1,7.98-.93,1.9-2.9,2.87-5.84,2.87-3.9,0-5.86-1.62-6-4.96v-.21h-5.82v.22c.06,3.26,1.02,5.61,2.87,6.99,1.83,1.35,4.82,2.04,8.87,2.04,4.57,0,7.88-1.01,9.83-3,1.13-1.07,1.89-2.43,2.27-4.02.39-1.58.58-4.3.58-8.05v-18.23c.02-.58.03-1.38.03-2.39s.02-1.68.05-1.97l.03-.24h-5.34l-.09,3.06h0Z"/><polygon class="cls-2" points="181.19 135.16 173.07 155.56 164.64 135.3 164.59 135.16 158.5 135.16 169.82 162.04 165.67 172.49 171.36 172.49 175.53 161.71 187.15 135.47 187.29 135.16 181.19 135.16 181.19 135.16"/><path class="cls-2" d="m104.67,153.32c-.34,1.47-1.16,2.8-2.32,3.75-1.2.99-2.67,1.51-4.23,1.51-1.4,0-2.63-.24-3.68-.71-1.42-.64-2.51-1.73-3.26-3.21-.58-1.14-.94-2.54-1.06-4.16h20.09v-.97c0-4.5-.96-8.09-2.86-10.67-1.06-1.45-2.42-2.57-4.05-3.33-1.7-.79-3.71-1.2-5.96-1.2-2.01,0-3.87.42-5.53,1.25-2.26,1.14-4.11,3.04-5.34,5.5-1.14,2.27-1.74,4.95-1.74,7.75,0,3.85,1.06,7.38,2.99,9.95,1.07,1.43,2.38,2.54,3.9,3.3,1.64.82,3.49,1.24,5.52,1.24,3.37,0,6.14-.79,8.24-2.36,2.14-1.59,3.65-4.03,4.51-7.27l.09-.37h-5.3Zm-12.37-11.97c.61-.72,1.34-1.29,2.15-1.67.87-.41,1.86-.62,2.94-.62,1.18,0,2.25.19,3.17.58,1.27.53,2.29,1.44,3.04,2.68.56.95.95,2.11,1.15,3.45h-14.44c.32-1.73,1.01-3.29,1.98-4.42"/></g></svg>